<svg width="269" height="149" viewBox="0 0 269 149" fill="none" xmlns="http://www.w3.org/2000/svg">
<circle cx="2.08923" cy="2.59045" r="1.66955" fill="#9FA9FF"/>
<circle cx="2.08923" cy="31.5294" r="1.66955" fill="#9FA9FF"/>
<circle cx="2.08923" cy="60.4684" r="1.66955" fill="#9FA9FF"/>
<circle cx="2.08923" cy="89.4072" r="1.66955" fill="#9FA9FF"/>
<circle cx="2.08923" cy="118.346" r="1.66955" fill="#9FA9FF"/>
<circle cx="2.08923" cy="147.285" r="1.66955" fill="#9FA9FF"/>
<circle cx="39.9325" cy="2.59045" r="1.66955" fill="#9FA9FF"/>
<circle cx="39.9325" cy="31.5294" r="1.66955" fill="#9FA9FF"/>
<circle cx="39.9325" cy="60.4684" r="1.66955" fill="#9FA9FF"/>
<circle cx="39.9325" cy="89.4072" r="1.66955" fill="#9FA9FF"/>
<circle cx="39.9325" cy="118.346" r="1.66955" fill="#9FA9FF"/>
<circle cx="39.9325" cy="147.285" r="1.66955" fill="#9FA9FF"/>
<circle cx="77.7758" cy="2.59045" r="1.66955" fill="#9FA9FF"/>
<circle cx="77.7758" cy="31.5294" r="1.66955" fill="#9FA9FF"/>
<circle cx="77.7758" cy="60.4684" r="1.66955" fill="#9FA9FF"/>
<circle cx="77.7758" cy="89.4072" r="1.66955" fill="#9FA9FF"/>
<circle cx="77.7758" cy="118.346" r="1.66955" fill="#9FA9FF"/>
<circle cx="77.7758" cy="147.285" r="1.66955" fill="#9FA9FF"/>
<circle cx="115.619" cy="2.59045" r="1.66955" fill="#9FA9FF"/>
<circle cx="115.619" cy="31.5294" r="1.66955" fill="#9FA9FF"/>
<circle cx="115.619" cy="60.4684" r="1.66955" fill="#9FA9FF"/>
<circle cx="115.619" cy="89.4072" r="1.66955" fill="#9FA9FF"/>
<circle cx="115.619" cy="118.346" r="1.66955" fill="#9FA9FF"/>
<circle cx="115.619" cy="147.285" r="1.66955" fill="#9FA9FF"/>
<circle cx="153.462" cy="2.59045" r="1.66955" fill="#9FA9FF"/>
<circle cx="153.462" cy="31.5294" r="1.66955" fill="#9FA9FF"/>
<circle cx="153.462" cy="60.4684" r="1.66955" fill="#9FA9FF"/>
<circle cx="153.462" cy="89.4072" r="1.66955" fill="#9FA9FF"/>
<circle cx="153.462" cy="118.346" r="1.66955" fill="#9FA9FF"/>
<circle cx="153.462" cy="147.285" r="1.66955" fill="#9FA9FF"/>
<circle cx="191.305" cy="2.59045" r="1.66955" fill="#9FA9FF"/>
<circle cx="191.305" cy="31.5294" r="1.66955" fill="#9FA9FF"/>
<circle cx="191.305" cy="60.4684" r="1.66955" fill="#9FA9FF"/>
<circle cx="191.305" cy="89.4072" r="1.66955" fill="#9FA9FF"/>
<circle cx="191.305" cy="118.346" r="1.66955" fill="#9FA9FF"/>
<circle cx="191.305" cy="147.285" r="1.66955" fill="#9FA9FF"/>
<circle cx="229.149" cy="2.59045" r="1.66955" fill="#9FA9FF"/>
<circle cx="229.149" cy="31.5294" r="1.66955" fill="#9FA9FF"/>
<circle cx="229.149" cy="60.4684" r="1.66955" fill="#9FA9FF"/>
<circle cx="229.149" cy="89.4072" r="1.66955" fill="#9FA9FF"/>
<circle cx="229.149" cy="118.346" r="1.66955" fill="#9FA9FF"/>
<circle cx="229.149" cy="147.285" r="1.66955" fill="#9FA9FF"/>
<circle cx="266.992" cy="2.59045" r="1.66955" fill="#9FA9FF"/>
<circle cx="266.992" cy="31.5294" r="1.66955" fill="#9FA9FF"/>
<circle cx="266.992" cy="60.4684" r="1.66955" fill="#9FA9FF"/>
<circle cx="266.992" cy="89.4072" r="1.66955" fill="#9FA9FF"/>
<circle cx="266.992" cy="118.346" r="1.66955" fill="#9FA9FF"/>
<circle cx="266.992" cy="147.285" r="1.66955" fill="#9FA9FF"/>
</svg>
