<svg xmlns="http://www.w3.org/2000/svg" viewBox="0 0 48 48"><defs><style>.cls-1{fill:#db5669;}.cls-2{fill:#f26674;}.cls-3{fill:#fc6;}.cls-4{fill:#ffde76;}.cls-5{fill:#f8834b;}</style></defs><title>Coin Stack Growth</title><g id="Coin_Stack_Growth" data-name="Coin Stack Growth"><path class="cls-1" d="M47,14H44V44H32V14H29L38,4Z"/><path class="cls-2" d="M47,14H44V42a9,9,0,0,1-9-9V14H32l7.5-8.33Z"/><rect class="cls-3" x="19" y="38" width="18" height="6" rx="2"/><rect class="cls-3" x="19" y="32" width="18" height="6" rx="2"/><rect class="cls-3" x="1" y="38" width="18" height="6" rx="2"/><path class="cls-4" d="M19,40v2H7a4,4,0,0,1-4-4H17A2,2,0,0,1,19,40Z"/><rect class="cls-3" x="1" y="32" width="18" height="6" rx="2"/><rect class="cls-3" x="19" y="26" width="18" height="6" rx="2"/><path class="cls-3" d="M19,23A9,9,0,1,1,4.72,15.72,9,9,0,0,1,19,23Z"/><path class="cls-4" d="M19,23a8.94,8.94,0,0,1-1.72,5.28A9,9,0,0,1,4.72,15.72,9,9,0,0,1,19,23Z"/><path class="cls-5" d="M10,22a1,1,0,1,1,1-1,1,1,0,0,0,1,1c1.66,0,1.21-3-1-3.82a1,1,0,1,0-2,0A3,3,0,0,0,10,24a1,1,0,1,1-1,1,1,1,0,0,0-1-1c-1.66,0-1.21,3,1,3.82a1,1,0,1,0,2,0A3,3,0,0,0,10,22Z"/><path class="cls-4" d="M19,34v2H7a4,4,0,0,1-4-4H17A2,2,0,0,1,19,34Z"/><path class="cls-4" d="M37,40v2H25a4,4,0,0,1-4-4H35A2,2,0,0,1,37,40Z"/><path class="cls-4" d="M37,34v2H25a4,4,0,0,1-4-4H35A2,2,0,0,1,37,34Z"/><path class="cls-4" d="M37,28v2H25a4,4,0,0,1-4-4H35A2,2,0,0,1,37,28Z"/></g></svg>