<?xml version="1.0" encoding="utf-8"?>
<!-- Generator: Adobe Illustrator 16.0.0, SVG Export Plug-In . SVG Version: 6.00 Build 0)  -->
<!DOCTYPE svg PUBLIC "-//W3C//DTD SVG 1.1//EN" "http://www.w3.org/Graphics/SVG/1.1/DTD/svg11.dtd">
<svg version="1.1" id="icons" xmlns="http://www.w3.org/2000/svg" xmlns:xlink="http://www.w3.org/1999/xlink" x="0px" y="0px"
	 width="64px" height="64px" viewBox="0 0 64 64" enable-background="new 0 0 64 64" xml:space="preserve">
<g>
	<g>
		<path fill="#656D78" d="M49,14.995H15c-6.07,0-11,4.92-11,11s4.93,11,11,11h34c6.07,0,11-4.92,11-11S55.07,14.995,49,14.995z
			 M49,39.995H15c-7.73,0-14-6.271-14-14c0-7.73,6.27-14,14-14h34c7.73,0,14,6.27,14,14C63,33.725,56.73,39.995,49,39.995z"/>
	</g>
	<g>
		<path fill="#545C66" d="M1,33.995c0,7.74,6.27,14.01,14,14.01h34c7.73,0,14-6.27,14-14.01v4c0,7.74-6.27,14.01-14,14.01H15
			c-7.73,0-14-6.27-14-14.01V33.995z"/>
	</g>
	<g>
		<path fill="#656D78" d="M1,29.995c0,7.74,6.27,14.01,14,14.01h34c7.73,0,14-6.27,14-14.01v4c0,7.74-6.27,14.01-14,14.01H15
			c-7.73,0-14-6.27-14-14.01V29.995z"/>
	</g>
	<g>
		<path fill="#545C66" d="M1,25.995c0,7.729,6.27,14,14,14h34c7.73,0,14-6.271,14-14v4c0,7.74-6.27,14.01-14,14.01H15
			c-7.73,0-14-6.27-14-14.01V25.995z"/>
	</g>
	<g>
		<path fill="#5D9CEC" d="M49,14.995c6.07,0,11,4.92,11,11s-4.93,11-11,11H15c-6.07,0-11-4.92-11-11s4.93-11,11-11H49z"/>
	</g>
</g>
<g>
	<g>
		<g>
			<path d="M24,22.996h-9c-0.553,0-1-0.447-1-1s0.447-1,1-1h9c0.553,0,1,0.447,1,1S24.553,22.996,24,22.996z"/>
		</g>
		<g>
			<path d="M29,22.996h-2c-0.553,0-1-0.447-1-1s0.447-1,1-1h2c0.553,0,1,0.447,1,1S29.553,22.996,29,22.996z"/>
		</g>
		<g>
			<path d="M37.994,26.996H27c-0.553,0-1-0.447-1-1s0.447-1,1-1h10.994c0.553,0,1,0.447,1,1S38.547,26.996,37.994,26.996z"/>
		</g>
		<g>
			<path d="M48.994,30.996h-10c-0.553,0-1-0.447-1-1s0.447-1,1-1h10c0.553,0,1,0.447,1,1S49.547,30.996,48.994,30.996z"/>
		</g>
		<g>
			<path d="M35.994,30.996h-2c-0.553,0-1-0.447-1-1s0.447-1,1-1h2c0.553,0,1,0.447,1,1S36.547,30.996,35.994,30.996z"/>
		</g>
	</g>
	<g>
		<path d="M15.002,41.002C6.729,41.002,0,34.271,0,25.998c0-8.272,6.729-15.002,15.002-15.002c0.553,0,1,0.447,1,1s-0.447,1-1,1
			C7.833,12.996,2,18.829,2,25.998c0,7.17,5.833,13.004,13.002,13.004c0.553,0,1,0.447,1,1S15.555,41.002,15.002,41.002z"/>
	</g>
	<g>
		<path d="M15.002,38.002C8.384,38.002,3,32.617,3,25.998c0-6.618,5.384-12.002,12.002-12.002c0.553,0,1,0.447,1,1s-0.447,1-1,1
			C9.487,15.996,5,20.483,5,25.998c0,5.517,4.487,10.004,10.002,10.004c0.553,0,1,0.447,1,1S15.555,38.002,15.002,38.002z"/>
	</g>
	<g>
		<path d="M48.998,41.002c-0.553,0-1-0.447-1-1s0.447-1,1-1C56.167,39.002,62,33.168,62,25.998c0-7.169-5.833-13.002-13.002-13.002
			c-0.553,0-1-0.447-1-1s0.447-1,1-1C57.271,10.996,64,17.726,64,25.998C64,34.271,57.271,41.002,48.998,41.002z"/>
	</g>
	<g>
		<path d="M48.998,38.002c-0.553,0-1-0.447-1-1s0.447-1,1-1C54.513,36.002,59,31.515,59,25.998c0-5.515-4.487-10.002-10.002-10.002
			c-0.553,0-1-0.447-1-1s0.447-1,1-1C55.616,13.996,61,19.38,61,25.998C61,32.617,55.616,38.002,48.998,38.002z"/>
	</g>
	<g>
		<path d="M48.998,12.996H15.002c-0.553,0-1-0.447-1-1s0.447-1,1-1h33.996c0.553,0,1,0.447,1,1S49.551,12.996,48.998,12.996z"/>
	</g>
	<g>
		<path d="M48.998,15.996H15.002c-0.553,0-1-0.447-1-1s0.447-1,1-1h33.996c0.553,0,1,0.447,1,1S49.551,15.996,48.998,15.996z"/>
	</g>
	<g>
		<path d="M48.998,38.002H15.002c-0.553,0-1-0.447-1-1s0.447-1,1-1h33.996c0.553,0,1,0.447,1,1S49.551,38.002,48.998,38.002z"/>
	</g>
	<g>
		<path d="M48.998,41.002H15.002c-0.553,0-1-0.447-1-1s0.447-1,1-1h33.996c0.553,0,1,0.447,1,1S49.551,41.002,48.998,41.002z"/>
	</g>
	<g>
		<g>
			<path d="M15.002,45.004C6.729,45.004,0,38.274,0,30.002c0-0.553,0.447-1,1-1s1,0.447,1,1c0,7.169,5.833,13.002,13.002,13.002
				c0.553,0,1,0.447,1,1S15.555,45.004,15.002,45.004z"/>
		</g>
		<g>
			<path d="M48.998,45.004c-0.553,0-1-0.447-1-1s0.447-1,1-1C56.167,43.004,62,37.171,62,30.002c0-0.553,0.447-1,1-1s1,0.447,1,1
				C64,38.274,57.271,45.004,48.998,45.004z"/>
		</g>
		<g>
			<path d="M48.998,45.004H15.002c-0.553,0-1-0.447-1-1s0.447-1,1-1h33.996c0.553,0,1,0.447,1,1S49.551,45.004,48.998,45.004z"/>
		</g>
	</g>
	<g>
		<g>
			<path d="M15.002,49.004C6.729,49.004,0,42.274,0,34.002c0-0.553,0.447-1,1-1s1,0.447,1,1c0,7.169,5.833,13.002,13.002,13.002
				c0.553,0,1,0.447,1,1S15.555,49.004,15.002,49.004z"/>
		</g>
		<g>
			<path d="M48.998,49.004c-0.553,0-1-0.447-1-1s0.447-1,1-1C56.167,47.004,62,41.171,62,34.002c0-0.553,0.447-1,1-1s1,0.447,1,1
				C64,42.274,57.271,49.004,48.998,49.004z"/>
		</g>
		<g>
			<path d="M48.998,49.004H15.002c-0.553,0-1-0.447-1-1s0.447-1,1-1h33.996c0.553,0,1,0.447,1,1S49.551,49.004,48.998,49.004z"/>
		</g>
	</g>
	<g>
		<g>
			<path d="M15.002,53.004C6.729,53.004,0,46.274,0,38.002c0-0.553,0.447-1,1-1s1,0.447,1,1c0,7.169,5.833,13.002,13.002,13.002
				c0.553,0,1,0.447,1,1S15.555,53.004,15.002,53.004z"/>
		</g>
		<g>
			<path d="M48.998,53.004c-0.553,0-1-0.447-1-1s0.447-1,1-1C56.167,51.004,62,45.171,62,38.002c0-0.553,0.447-1,1-1s1,0.447,1,1
				C64,46.274,57.271,53.004,48.998,53.004z"/>
		</g>
		<g>
			<path d="M48.998,53.004H15.002c-0.553,0-1-0.447-1-1s0.447-1,1-1h33.996c0.553,0,1,0.447,1,1S49.551,53.004,48.998,53.004z"/>
		</g>
	</g>
	<g>
		<path d="M1,39.002c-0.553,0-1-0.447-1-1V25.998c0-0.553,0.447-1,1-1s1,0.447,1,1v12.004C2,38.555,1.553,39.002,1,39.002z"/>
	</g>
	<g>
		<path d="M63,39.002c-0.553,0-1-0.447-1-1V25.998c0-0.553,0.447-1,1-1s1,0.447,1,1v12.004C64,38.555,63.553,39.002,63,39.002z"/>
	</g>
</g>
</svg>
