<?xml version="1.0" encoding="utf-8"?>
<!-- Generator: Adobe Illustrator 24.3.0, SVG Export Plug-In . SVG Version: 6.00 Build 0)  -->
<svg version="1.1" id="Layer_1" xmlns="http://www.w3.org/2000/svg" xmlns:xlink="http://www.w3.org/1999/xlink" x="0px" y="0px"
	 viewBox="0 0 80 80" enable-background="new 0 0 80 80" xml:space="preserve">
<path fill="#FFCC43" d="M7.032,56.006c0,3.645,2.955,6.6,6.6,6.6h52.8c3.645,0,6.6-2.955,6.6-6.6v-32.45c0-3.645-2.955-6.6-6.6-6.6
	h-52.8c-3.645,0-6.6,2.955-6.6,6.6V56.006z"/>
<path fill="#667BBC" d="M48.282,54.956h16.75v-16.75h-16.75V54.956z M7.032,22.956v9.75h65.25v-9.75H7.032z"/>
<path fill="#131731" d="M64.551,15.123H15.254c-5.462,0-9.889,4.427-9.891,9.891v29.719c0.002,5.461,4.429,9.888,9.891,9.89h49.297
	c5.464-0.002,9.891-4.429,9.891-9.89h0.002V25.013C74.442,19.549,70.015,15.123,64.551,15.123z M15.254,18.122h49.297
	c3.148,0.005,5.795,2.117,6.62,5H8.637C9.461,20.239,12.106,18.128,15.254,18.122z M71.443,54.733
	c-0.007,3.803-3.086,6.883-6.892,6.889H15.254c-3.805-0.006-6.883-3.084-6.891-6.889l0.002-20.61h63.078V54.733z M71.443,31.122
	H8.365l0-5h63.078V31.122z M66.363,37.372H47.115v19.25h19.248V37.372z M63.364,53.622H50.113V40.371h13.251V53.622z M29.531,45.122
	H13.615v3.001h15.916V45.122z M29.531,52.123H13.615v3h15.916V52.123z"/>
</svg>
