<svg xmlns="http://www.w3.org/2000/svg" width="128" height="128" viewBox="0 0 128 128">
  <title>REVIEW</title>
  <g>
    <g>
      <path d="M98.09,29.792H29.9A5.708,5.708,0,0,0,24.2,35.5V79.834A5.709,5.709,0,0,0,29.9,85.542h25.76L64,98.208,72.33,85.542H98.09a5.708,5.708,0,0,0,5.708-5.708V35.5A5.707,5.707,0,0,0,98.09,29.792Z" fill="#fd4b4a"/>
      <path d="M52.046,42.52l3.931,7.966a1.575,1.575,0,0,0,1.185.86l8.791,1.278a1.573,1.573,0,0,1,.872,2.683l-6.361,6.2a1.573,1.573,0,0,0-.453,1.392l1.5,8.755a1.574,1.574,0,0,1-2.283,1.659L51.367,69.18a1.573,1.573,0,0,0-1.464,0L42.04,73.314a1.573,1.573,0,0,1-2.282-1.659l1.5-8.755a1.57,1.57,0,0,0-.452-1.392l-6.361-6.2a1.573,1.573,0,0,1,.872-2.683l8.791-1.278a1.572,1.572,0,0,0,1.184-.86l3.931-7.966A1.574,1.574,0,0,1,52.046,42.52Z" fill="#ffd92d"/>
      <g>
        <path d="M76.039,45.847H86.372a1.75,1.75,0,0,0,0-3.5H76.039a1.75,1.75,0,0,0,0,3.5Z" fill="#e9f1f8"/>
        <path d="M76.039,54.83H93.872a1.75,1.75,0,0,0,0-3.5H76.039a1.75,1.75,0,0,0,0,3.5Z" fill="#e9f1f8"/>
        <path d="M93.872,60.312H76.039a1.75,1.75,0,0,0,0,3.5H93.872a1.75,1.75,0,0,0,0-3.5Z" fill="#e9f1f8"/>
        <path d="M93.872,69.293H76.039a1.75,1.75,0,1,0,0,3.5H93.872a1.75,1.75,0,1,0,0-3.5Z" fill="#e9f1f8"/>
      </g>
    </g>
    <g>
      <path d="M47.25,31.542h1a1.75,1.75,0,0,0,0-3.5h-1a1.75,1.75,0,0,0,0,3.5Z" fill="#001c5b"/>
      <path d="M98.094,28.042H55.375a1.75,1.75,0,0,0,0,3.5H98.094a3.962,3.962,0,0,1,3.957,3.957V57a1.75,1.75,0,0,0,3.5,0V35.5A7.465,7.465,0,0,0,98.094,28.042Z" fill="#001c5b"/>
      <path d="M103.8,61.75a1.75,1.75,0,0,0-1.75,1.75v1.375a1.75,1.75,0,0,0,3.5,0V63.5A1.75,1.75,0,0,0,103.8,61.75Z" fill="#001c5b"/>
      <path d="M103.8,69.293a1.75,1.75,0,0,0-1.75,1.75v8.791a3.963,3.963,0,0,1-3.957,3.958H72.333a1.749,1.749,0,0,0-1.462.788L64,95.024l-3.53-5.365a1.75,1.75,0,1,0-2.924,1.924l4.992,7.587a1.75,1.75,0,0,0,2.924,0l7.814-11.878H98.094a7.466,7.466,0,0,0,7.457-7.458V71.043A1.75,1.75,0,0,0,103.8,69.293Z" fill="#001c5b"/>
      <path d="M55.667,83.792H29.906a3.963,3.963,0,0,1-3.957-3.958V35.5a3.962,3.962,0,0,1,3.957-3.957H41a1.75,1.75,0,0,0,0-3.5H29.906A7.465,7.465,0,0,0,22.449,35.5V79.834a7.466,7.466,0,0,0,7.457,7.458H55.667a1.75,1.75,0,0,0,0-3.5Z" fill="#001c5b"/>
      <path d="M32.386,53.154a3.3,3.3,0,0,0,.842,3.406L39.522,62.7l-1.486,8.662a3.319,3.319,0,0,0,4.821,3.5l7.782-4.091,7.78,4.091a3.323,3.323,0,0,0,4.821-3.5L61.754,62.7l6.294-6.136a3.322,3.322,0,0,0-1.84-5.669l-4.855-.706a1.75,1.75,0,0,0-.5,3.464l4.5.654-6.1,5.95a3.323,3.323,0,0,0-.957,2.942l1.441,8.4-7.545-3.967a3.329,3.329,0,0,0-3.093,0L41.546,71.6l1.442-8.4a3.324,3.324,0,0,0-.957-2.939l-6.1-5.951,8.435-1.226a3.324,3.324,0,0,0,2.5-1.818l3.774-7.644,3.772,7.644a1.75,1.75,0,0,0,3.139-1.549l-3.932-7.965a3.323,3.323,0,0,0-5.96,0l-3.89,7.882-8.7,1.264A3.3,3.3,0,0,0,32.386,53.154Z" fill="#001c5b"/>
      <path d="M76.042,45.847H86.375a1.75,1.75,0,0,0,0-3.5H76.042a1.75,1.75,0,0,0,0,3.5Z" fill="#001c5b"/>
      <path d="M76.042,54.83H93.875a1.75,1.75,0,0,0,0-3.5H76.042a1.75,1.75,0,0,0,0,3.5Z" fill="#001c5b"/>
      <path d="M76.042,63.812H93.875a1.75,1.75,0,0,0,0-3.5H76.042a1.75,1.75,0,0,0,0,3.5Z" fill="#001c5b"/>
      <path d="M76.042,72.793H93.875a1.75,1.75,0,0,0,0-3.5H76.042a1.75,1.75,0,0,0,0,3.5Z" fill="#001c5b"/>
    </g>
  </g>
</svg>
