<?xml version="1.0" encoding="utf-8"?>
<!-- Generator: Adobe Illustrator 22.0.1, SVG Export Plug-In . SVG Version: 6.00 Build 0)  -->
<svg version="1.1" id="Layer_1" xmlns="http://www.w3.org/2000/svg" xmlns:xlink="http://www.w3.org/1999/xlink" x="0px" y="0px"
	 viewBox="0 0 256 256" style="enable-background:new 0 0 256 256;" xml:space="preserve">
<style type="text/css">
	.st0{fill:#3A312A;}
	.st1{fill:#D6DF58;}
	.st2{fill:#87796F;}
	.st3{fill:#B9C239;}
	.st4{fill:#EF6D7A;}
	.st5{fill:#FCE8CB;}
	.st6{fill:#D5DE58;}
	.st7{fill:#D34E5C;}
	.st8{fill:#695B51;}
	.st9{fill:#8AC6DD;}
	.st10{fill:#D7E057;}
	.st11{fill:#B8C136;}
	.st12{fill:#F16C7A;}
	.st13{fill:#8AC2D9;}
	.st14{fill:#F7E3C7;}
	.st15{fill:#8AC3DA;}
	.st16{fill:#6DA3BC;}
	.st17{fill:#6A5C52;}
	.st18{fill:#D5DC57;}
	.st19{fill:#F6E2C6;}
	.st20{fill:#DBC7AA;}
	.st21{fill:#CE4E61;}
	.st22{fill:#FAE6CA;}
	.st23{fill:#8AC5DC;}
	.st24{fill:#DDC9AC;}
	.st25{fill:#DECAAD;}
	.st26{fill:#6CA6BE;}
	.st27{fill:#F8E4C8;}
	.st28{fill:#89C4DB;}
	.st29{fill:#ED6E7A;}
	.st30{fill:#D24E5C;}
	.st31{fill:#6DA4BD;}
	.st32{fill:#EB6E7A;}
	.st33{fill:#68A7BB;}
	.st34{fill:#B9BC37;}
	.st35{fill:#CC4E61;}
	.st36{fill:#6CA8BF;}
	.st37{fill-rule:evenodd;clip-rule:evenodd;fill:#D5DE58;}
	.st38{fill:#EA6D7A;}
	.st39{fill:#F4E0C4;}
	.st40{fill-rule:evenodd;clip-rule:evenodd;fill:#D6DF58;}
	.st41{fill-rule:evenodd;clip-rule:evenodd;fill:#F16C7A;}
	.st42{fill:#F3DEC3;}
	.st43{fill-rule:evenodd;clip-rule:evenodd;fill:#FAE6CA;}
	.st44{fill:#F59689;}
	.st45{fill-rule:evenodd;clip-rule:evenodd;fill:#F8E4C8;}
	.st46{fill-rule:evenodd;clip-rule:evenodd;fill:#FCE8CB;}
	.st47{fill:#F5978A;}
	.st48{fill:#D4DB56;}
	.st49{fill-rule:evenodd;clip-rule:evenodd;fill:#D4DA55;}
	.st50{fill-rule:evenodd;clip-rule:evenodd;fill:#EB6E7A;}
	.st51{fill:#68A6B9;}
	.st52{fill-rule:evenodd;clip-rule:evenodd;fill:#D5DC57;}
	.st53{fill:#8AC1D8;}
	.st54{fill:#F5E1C5;}
	.st55{fill:#D4D752;}
	.st56{fill:#D3D751;}
	.st57{fill:#D4D853;}
	.st58{fill:#E96C7A;}
	.st59{fill:#D4DA55;}
	.st60{fill:#8BC0D7;}
	.st61{fill:#87796F;stroke:#3A312A;stroke-width:3;stroke-linecap:round;stroke-linejoin:round;stroke-miterlimit:10;}
</style>
<g>
	<g>
		<g>
			<path class="st6" d="M58.882,26.313c-0.974,11.564-13.025,13.389-13.025,13.389c10.347,0.487,12.925,14.059,12.925,14.059
				c0.221-9.677,13.321-14.202,13.321-14.202C62.29,38.972,58.882,26.313,58.882,26.313z"/>
		</g>
	</g>
	<g>
		<g>
			<path class="st0" d="M72.194,38.063c-8.605-0.516-11.833-12.025-11.864-12.142c-0.19-0.702-0.848-1.163-1.584-1.102
				c-0.725,0.066-1.298,0.642-1.359,1.367C56.527,36.402,46.074,38.15,45.633,38.219c-0.763,0.116-1.313,0.791-1.273,1.561
				c0.04,0.771,0.657,1.385,1.428,1.421c9.028,0.426,11.499,12.719,11.523,12.844c0.138,0.711,0.76,1.217,1.473,1.217
				c0.042,0,0.084-0.002,0.126-0.005c0.765-0.064,1.357-0.693,1.375-1.46c0.193-8.509,12.191-12.777,12.313-12.819
				c0.676-0.234,1.092-0.914,0.994-1.622C73.492,38.646,72.908,38.105,72.194,38.063z M58.628,48.408
				c-1.357-3.131-3.709-6.908-7.587-8.877c2.931-1.405,6.408-3.913,8.201-8.273c1.551,3.071,4.2,6.881,8.335,8.723
				C64.569,41.621,60.654,44.387,58.628,48.408z"/>
		</g>
	</g>
	<g>
		<g>
			<path class="st6" d="M37.184,43.293c-0.689,8.179-9.212,9.47-9.212,9.47c7.318,0.344,9.142,9.944,9.142,9.944
				c0.156-6.844,9.422-10.045,9.422-10.045C39.594,52.247,37.184,43.293,37.184,43.293z"/>
		</g>
	</g>
	<g>
		<g>
			<path class="st0" d="M46.625,51.166c-5.766-0.346-7.972-8.187-7.994-8.266c-0.189-0.702-0.864-1.166-1.581-1.102
				c-0.726,0.065-1.3,0.643-1.361,1.368c-0.578,6.871-7.646,8.066-7.942,8.113c-0.763,0.116-1.314,0.791-1.273,1.561
				c0.04,0.771,0.657,1.385,1.428,1.421c6.035,0.284,7.724,8.645,7.739,8.727c0.136,0.713,0.759,1.22,1.473,1.22
				c0.041,0,0.083-0.002,0.125-0.005c0.765-0.063,1.358-0.693,1.376-1.461c0.13-5.709,8.331-8.633,8.411-8.661
				c0.677-0.233,1.094-0.913,0.997-1.622C47.924,51.75,47.339,51.209,46.625,51.166z M37.04,57.96
				c-0.924-1.885-2.34-3.946-4.447-5.279c1.856-1.041,3.698-2.63,4.871-4.917c1.058,1.874,2.654,3.955,4.941,5.225
				C40.556,54.089,38.416,55.728,37.04,57.96z"/>
		</g>
	</g>
	<g>
		<g>
			<path class="st6" d="M37.146,16.636c-0.657,8.182-9.175,9.507-9.175,9.507c7.319,0.316,9.181,9.909,9.181,9.909
				c0.129-6.845,9.383-10.082,9.383-10.082C39.591,25.581,37.146,16.636,37.146,16.636z"/>
		</g>
	</g>
	<g>
		<g>
			<path class="st0" d="M46.618,24.471c-5.742-0.32-7.984-8.083-8.026-8.231c-0.192-0.702-0.874-1.172-1.586-1.097
				c-0.726,0.067-1.297,0.646-1.355,1.373c-0.552,6.873-7.614,8.097-7.91,8.145c-0.762,0.119-1.31,0.796-1.268,1.565
				c0.043,0.771,0.663,1.382,1.434,1.416c6.036,0.261,7.757,8.613,7.772,8.695c0.138,0.71,0.76,1.214,1.472,1.214
				c0.043,0,0.087-0.002,0.131-0.006c0.764-0.066,1.355-0.698,1.37-1.466c0.107-5.709,8.298-8.666,8.378-8.694
				c0.676-0.236,1.09-0.917,0.99-1.626C47.919,25.05,47.332,24.511,46.618,24.471z M37.06,31.304
				c-0.931-1.882-2.355-3.938-4.467-5.263c1.851-1.048,3.685-2.644,4.851-4.936c1.064,1.87,2.67,3.944,4.962,5.205
				C40.56,27.418,38.427,29.066,37.06,31.304z"/>
		</g>
	</g>
	<g>
		<g>
			<path class="st2" d="M193.631,48.105l-54.979-30.593c-3.811-2.12-8.622-0.749-10.742,3.061l-8.803,15.821l-6.776,12.177
				L62.953,137.31c-2.121,3.811-0.75,8.621,3.061,10.742l54.979,30.593c3.811,2.121,8.621,0.75,10.742-3.061l64.957-116.737
				C198.813,55.036,197.442,50.225,193.631,48.105z"/>
		</g>
	</g>
	<g>
		<g>
			<path class="st0" d="M198.829,52.431c-0.688-2.414-2.275-4.416-4.469-5.637l-54.979-30.593c-2.194-1.22-4.73-1.515-7.146-0.825
				c-2.415,0.688-4.417,2.275-5.637,4.468l-8.804,15.821c-0.403,0.724-0.143,1.638,0.581,2.04c0.724,0.402,1.637,0.144,2.04-0.581
				l8.804-15.821c0.831-1.493,2.193-2.573,3.838-3.042c1.643-0.469,3.372-0.269,4.864,0.562l54.979,30.593
				c1.493,0.831,2.574,2.194,3.042,3.838c0.469,1.645,0.27,3.371-0.562,4.864l-64.957,116.737c-0.831,1.493-2.193,2.573-3.837,3.042
				c-1.644,0.467-3.372,0.268-4.864-0.563l-54.979-30.593c-3.083-1.716-4.195-5.619-2.48-8.701l49.378-88.739
				c0.403-0.724,0.143-1.638-0.581-2.04c-0.725-0.404-1.637-0.144-2.04,0.581l-49.378,88.739c-1.221,2.193-1.514,4.73-0.825,7.146
				c0.688,2.414,2.275,4.416,4.468,5.636l54.979,30.593c1.417,0.789,2.977,1.19,4.556,1.19c0.864,0,1.734-0.121,2.59-0.364
				c2.414-0.688,4.416-2.274,5.636-4.468l64.957-116.737C199.224,57.383,199.518,54.846,198.829,52.431z"/>
		</g>
	</g>
	<g>
		<g>
			<path class="st5" d="M218.726,81.154l-14.338-22.121l-5.832-8.997l-14.051-21.679c-2.372-3.66-7.264-4.704-10.924-2.332
				L61.478,98.683c-3.66,2.372-4.704,7.264-2.332,10.924l34.22,52.798c2.372,3.66,7.264,4.704,10.924,2.332l112.105-72.659
				C220.054,89.705,221.098,84.813,218.726,81.154z"/>
		</g>
	</g>
	<g>
		<g>
			<path class="st0" d="M219.985,80.338L199.816,49.22l-14.052-21.679c-1.364-2.106-3.469-3.556-5.924-4.08
				c-2.457-0.524-4.968-0.062-7.073,1.304L60.661,97.424c-4.348,2.819-5.593,8.649-2.774,12.998l34.22,52.797
				c1.797,2.773,4.82,4.284,7.902,4.284c1.751,0,3.521-0.487,5.096-1.508l112.106-72.659
				C221.558,90.518,222.803,84.687,219.985,80.338z M215.579,90.818l-112.106,72.659c-2.963,1.919-6.931,1.07-8.85-1.89
				l-34.22-52.797c-1.919-2.961-1.071-6.931,1.889-8.85l112.105-72.659c1.049-0.68,2.245-1.03,3.466-1.03
				c0.449,0,0.9,0.047,1.35,0.144c1.672,0.356,3.104,1.343,4.033,2.776l34.221,52.797C219.386,84.93,218.538,88.899,215.579,90.818z
				"/>
		</g>
	</g>
	<g>
		<g>
			
				<ellipse transform="matrix(0.9351 -0.3545 0.3545 0.9351 -24.7889 55.4464)" class="st10" cx="138.936" cy="95.38" rx="28.423" ry="28.423"/>
		</g>
	</g>
	<g>
		<g>
			<path class="st0" d="M164.046,79.105c-8.974-13.846-27.538-17.81-41.384-8.836c-13.847,8.975-17.81,27.54-8.836,41.385
				c5.723,8.829,15.345,13.64,25.157,13.64c5.574,0,11.211-1.553,16.227-4.804c6.708-4.348,11.32-11.046,12.989-18.863
				C169.868,93.811,168.394,85.813,164.046,79.105z M153.579,117.973c-12.459,8.073-29.161,4.507-37.235-7.949
				c-8.074-12.458-4.508-29.162,7.949-37.236c4.515-2.926,9.584-4.322,14.601-4.322c8.827,0,17.486,4.329,22.635,12.271
				C169.603,93.194,166.036,109.898,153.579,117.973z"/>
		</g>
	</g>
	<g>
		<g>
			<path class="st2" d="M151.801,94.064c-2.384-3.678-5.802-4.654-11.778-3.219c-4.321,0.944-6.308,1.013-7.182-0.336
				c-0.741-1.144-0.625-2.845,2.032-4.567c2.942-1.907,5.431-2.186,6.785-2.425l-1.808-5.385c-1.773,0.22-3.983,0.839-6.8,2.492
				l-2.331-3.597l-4.005,2.596l2.516,3.882c-3.816,3.692-4.523,8.154-2.191,11.751c2.569,3.964,6.877,4.074,12.203,2.711
				c3.687-0.938,5.63-0.805,6.636,0.747c1.06,1.635,0.048,3.568-2.281,5.077c-2.657,1.722-5.624,2.426-7.949,2.599l1.873,5.575
				c2.136-0.108,5.268-1.094,8.086-2.745l2.516,3.882l4.005-2.596l-2.702-4.169C153.597,102.476,154.159,97.701,151.801,94.064z"/>
		</g>
	</g>
	<g>
		<g>
			<path class="st0" d="M151.344,106.539c3.711-4.035,4.407-9.14,1.716-13.291c-2.743-4.237-6.872-5.424-13.356-3.869
				c-2.368,0.519-5.145,1.021-5.604,0.313c-0.162-0.251-0.192-0.486-0.098-0.764c0.104-0.305,0.462-0.934,1.686-1.728
				c2.422-1.569,4.475-1.912,5.832-2.139l0.398-0.067c0.431-0.076,0.806-0.336,1.029-0.711c0.223-0.376,0.271-0.83,0.132-1.244
				l-1.808-5.386c-0.228-0.676-0.897-1.098-1.607-1.011c-1.993,0.248-4.005,0.902-6.115,1.992l-1.571-2.424
				c-0.217-0.334-0.557-0.568-0.945-0.651c-0.393-0.084-0.796-0.008-1.129,0.208l-4.005,2.596c-0.695,0.45-0.893,1.379-0.443,2.074
				l1.87,2.887c-3.517,3.969-4.128,8.763-1.546,12.746c3.395,5.238,9.177,4.542,13.832,3.35c4.239-1.078,4.759-0.275,5.008,0.109
				c0.161,0.249,0.291,0.578,0.031,1.132c-0.287,0.611-0.951,1.275-1.87,1.87c-2.764,1.793-5.725,2.25-7.244,2.362
				c-0.462,0.034-0.882,0.28-1.139,0.666c-0.256,0.386-0.319,0.869-0.172,1.308l1.873,5.575c0.215,0.638,0.838,1.061,1.497,1.021
				c2.162-0.108,4.94-0.955,7.508-2.261l1.76,2.715c0.217,0.334,0.557,0.568,0.945,0.651c0.104,0.022,0.209,0.033,0.313,0.033
				c0.287,0,0.571-0.083,0.815-0.241l4.005-2.596c0.695-0.45,0.894-1.379,0.443-2.074L151.344,106.539z M148.566,111.028l-1.7-2.623
				c-0.286-0.442-0.768-0.685-1.26-0.685c-0.259,0-0.52,0.066-0.758,0.206c-2.039,1.195-4.387,2.086-6.291,2.413l-0.904-2.692
				c1.883-0.331,4.373-1.05,6.76-2.598c1.402-0.908,2.424-1.984,2.953-3.111c0.647-1.378,0.566-2.813-0.229-4.04
				c-1.707-2.632-4.979-2.221-8.268-1.384c-5.619,1.439-8.686,0.836-10.572-2.074c-1.982-3.059-1.243-6.743,1.975-9.857
				c0.516-0.499,0.606-1.292,0.216-1.894l-1.7-2.623l1.487-0.965l1.516,2.338c0.437,0.675,1.326,0.883,2.018,0.479
				c1.772-1.039,3.429-1.728,5.028-2.088l0.847,2.521c-1.479,0.316-3.436,0.912-5.627,2.333c-1.512,0.979-2.485,2.08-2.893,3.272
				c-0.394,1.149-0.245,2.346,0.419,3.368c1.525,2.353,4.729,1.864,8.791,0.979c6.104-1.468,8.479-0.031,10.168,2.576
				c2.094,3.229,1.276,7.198-2.135,10.358c-0.535,0.496-0.636,1.305-0.239,1.916l1.886,2.909L148.566,111.028z"/>
		</g>
	</g>
	<g>
		<g>
			<path class="st28" d="M212.478,111.142H65.394c-8.589,0-15.551,6.963-15.551,15.551v97.24c0,8.589,6.963,15.552,15.551,15.552
				h147.084c8.589,0,15.552-6.963,15.552-15.552v-97.24C228.03,118.105,221.067,111.142,212.478,111.142z"/>
		</g>
	</g>
	<g>
		<g>
			<path class="st0" d="M212.479,109.643H65.394c-9.402,0-17.052,7.649-17.052,17.051v42.809c0,0.828,0.672,1.5,1.5,1.5
				c0.828,0,1.5-0.672,1.5-1.5v-42.809c0-7.748,6.304-14.051,14.052-14.051h147.085c7.748,0,14.051,6.303,14.051,14.051v97.24
				c0,7.748-6.303,14.052-14.051,14.052H65.394c-7.748,0-14.052-6.304-14.052-14.052v-40.22c0-0.828-0.672-1.5-1.5-1.5
				c-0.828,0-1.5,0.672-1.5,1.5v40.22c0,9.402,7.649,17.052,17.052,17.052h147.085c9.401,0,17.051-7.649,17.051-17.052v-97.24
				C229.529,117.292,221.88,109.643,212.479,109.643z"/>
		</g>
	</g>
	<g>
		<g>
			<path class="st29" d="M181.86,152.123c-12.808,0-23.191,10.383-23.191,23.191c0,12.808,10.383,23.191,23.191,23.191h46.169
				v-46.383H181.86z"/>
		</g>
	</g>
	<g>
		<g>
			<path class="st0" d="M228.029,150.623H181.86c-13.615,0-24.691,11.076-24.691,24.69c0,13.615,11.076,24.691,24.691,24.691h46.169
				c0.828,0,1.5-0.672,1.5-1.5v-46.382C229.529,151.295,228.857,150.623,228.029,150.623z M226.529,197.005H181.86
				c-11.961,0-21.691-9.73-21.691-21.691c0-11.96,9.73-21.69,21.691-21.69h44.669V197.005z"/>
		</g>
	</g>
	<g>
		<g>
			<path class="st2" d="M183.781,167.529c-4.299,0-7.784,3.485-7.784,7.785s3.485,7.784,7.784,7.784
				c4.299,0,7.785-3.485,7.785-7.784S188.08,167.529,183.781,167.529z"/>
		</g>
	</g>
	<g>
		<g>
			<path class="st0" d="M183.781,166.029c-5.12,0-9.285,4.165-9.285,9.284c0,5.12,4.165,9.285,9.285,9.285
				c5.119,0,9.284-4.165,9.284-9.285C193.065,170.194,188.9,166.029,183.781,166.029z M183.781,181.599
				c-3.466,0-6.285-2.819-6.285-6.285c0-3.465,2.819-6.284,6.285-6.284c3.465,0,6.284,2.819,6.284,6.284
				C190.065,178.779,187.246,181.599,183.781,181.599z"/>
		</g>
	</g>
	<g>
		<g>
			<path class="st31" d="M212.476,112.643h-20c7.75,0,14.05,6.3,14.05,14.05v23.93h20v-23.93
				C226.526,118.943,220.226,112.643,212.476,112.643z"/>
		</g>
	</g>
	<g>
		<g>
			<path class="st31" d="M206.526,200.003v23.93c0,7.75-6.3,14.05-14.05,14.05h20c7.75,0,14.05-6.3,14.05-14.05v-23.93H206.526z"/>
		</g>
	</g>
	<g>
		<g>
			<rect x="206.526" y="153.623" class="st7" width="20" height="43.38"/>
		</g>
	</g>
</g>
</svg>
